# xmcd CD database file
#
# Track frame offsets:
#	150
#	14756
#	27247
#	33560
#	40592
#	47738
#	51663
#	68510
#	77397
#	86702
#	94045
#	110166
#	121760
#	127277
#	135499
#	142490
#	157576
#	172685
#	183317
#	195035
#	207692
#	221798
#	233612
#	241149
#	253790
#	262114
#
# Disc length: 3662 seconds
#
# Revision: 0
# Processed by: cddbd v1.5.1PL0 Copyright (c) Steve Scherf et al.
# Submitted via: CDex 1.51
#
DISCID=700e4c1a
DTITLE=Stefano Benni - Baldanders
DYEAR=2004
DGENRE=Jazz
TTITLE0=Anima
TTITLE1=Saltatempo
TTITLE2=Saltatempo
TTITLE3=Saltatempo
TTITLE4=Saltatempo
TTITLE5=Saltatempo
TTITLE6=Tema d'amore
TTITLE7=La Luisona
TTITLE8=La Luisona
TTITLE9=La Luisona
TTITLE10=Ce l'hai un idea?
TTITLE11=Fratello Bancomat
TTITLE12=Fratello Bancomat
TTITLE13=Fratello Bancomat
TTITLE14=Fratello Bancomat
TTITLE15=Fratello Bancomat
TTITLE16=Le piccole cose
TTITLE17=Il bonus
TTITLE18=Il bonus
TTITLE19=Il bonus
TTITLE20=Lombrittico Etica
TTITLE21=Monologo di Lee
TTITLE22=Monologo di Lee
TTITLE23=Monologo di Lee
TTITLE24=Monologo di Lee
TTITLE25=Nursery crime
EXTD=YEAR: 2004
EXTT0=
EXTT1=
EXTT2=
EXTT3=
EXTT4=
EXTT5=
EXTT6=
EXTT7=
EXTT8=
EXTT9=
EXTT10=
EXTT11=
EXTT12=
EXTT13=
EXTT14=
EXTT15=
EXTT16=
EXTT17=
EXTT18=
EXTT19=
EXTT20=
EXTT21=
EXTT22=
EXTT23=
EXTT24=
EXTT25=
PLAYORDER=
